<svg width="24" height="24" viewBox="0 0 24 24" fill="none" xmlns="http://www.w3.org/2000/svg">
    <rect width="24" height="24" />
    <path
        d="M5 18V13.8653L8.91545 18.107L9.60821 18.8575L10.3439 18.1491L19 9.81358V18C19 19.1046 18.1046 20 17 20H7C5.89543 20 5 19.1046 5 18ZM6.05652 10.5869L5 11.5622V7C5 5.89543 5.89543 5 7 5H17C18.1046 5 19 5.89543 19 7V7.59679L18.0267 6.58604L17.333 5.86572L16.6127 6.55936L9.77641 13.1425L7.46961 10.6434L6.79133 9.90864L6.05652 10.5869Z"
        fill="#41B883" stroke="#41B883" stroke-width="2" />
</svg>